<?xml version="1.0" encoding="UTF-8"?>
<svg version="1.1" xmlns="http://www.w3.org/2000/svg" width="325" height="260">
<path d="M0 0 C107.25 0 214.5 0 325 0 C325 85.8 325 171.6 325 260 C217.75 260 110.5 260 0 260 C0 174.2 0 88.4 0 0 Z " fill="#333333" transform="translate(0,0)"/>
<path d="M0 0 C0.7347757 -0.00524185 1.46955139 -0.0104837 2.22659302 -0.0158844 C3.77816508 -0.02229517 5.32978579 -0.02097977 6.88134766 -0.01245117 C9.2434043 -0.00395806 11.60302693 -0.03268312 13.96484375 -0.06445312 C15.47656178 -0.06606588 16.98828406 -0.06548619 18.5 -0.0625 C19.20019257 -0.07373398 19.90038513 -0.08496796 20.62179565 -0.09654236 C25.65826158 -0.02574378 28.51280297 1.26314354 32.3828125 4.43359375 C34.78605728 8.03846092 35.40527607 11.51578226 36.2578125 15.68359375 C38.18202398 24.70876048 40.48495503 33.57766574 42.94726562 42.47265625 C43.51307298 44.52107068 44.07300101 46.57103407 44.6328125 48.62109375 C44.96796875 49.83152344 45.303125 51.04195312 45.6484375 52.2890625 C46.3828125 55.43359375 46.3828125 55.43359375 46.3828125 59.43359375 C47.0428125 59.43359375 47.7028125 59.43359375 48.3828125 59.43359375 C48.63267662 58.63057076 48.63267662 58.63057076 48.8875885 57.81132507 C50.79115503 51.88047996 53.11734756 46.24617756 55.69140625 40.578125 C56.09939957 39.67285568 56.50739288 38.76758636 56.92774963 37.83488464 C57.78531358 35.93555327 58.64512235 34.03723399 59.50708008 32.13989258 C60.81995327 29.24688534 62.12228617 26.34929159 63.42382812 23.45117188 C64.2623902 21.59737085 65.10156212 19.74384555 65.94140625 17.890625 C66.32695175 17.03112747 66.71249725 16.17162994 67.10972595 15.28608704 C72.36222831 3.78064987 72.36222831 3.78064987 77.3828125 0.43359375 C79.98579673 0.18991012 82.47948478 0.05776955 85.0859375 0.02734375 C85.84195251 0.0159436 86.59796753 0.00454346 87.37689209 -0.00720215 C88.97727885 -0.02608504 90.57774308 -0.03916339 92.17822266 -0.046875 C94.61110722 -0.06623354 97.04056913 -0.12824797 99.47265625 -0.19140625 C112.50024837 -0.37536142 112.50024837 -0.37536142 116.84375 2.984375 C119.71904678 6.26918958 120.90806483 9.89923421 121.7578125 14.12109375 C122.15189557 15.81421042 122.54789882 17.50688075 122.9453125 19.19921875 C123.27402344 20.65038086 123.27402344 20.65038086 123.609375 22.13085938 C124.49882406 25.92898653 125.46376694 29.70537476 126.4453125 33.48046875 C126.63119934 34.1954805 126.81708618 34.91049225 127.00860596 35.64717102 C127.39475931 37.13125179 127.78109447 38.61528526 128.16760254 40.09927368 C131.47066782 52.81334239 134.67865103 65.55094476 137.84350586 78.30004883 C139.32186088 84.24078964 140.82599037 90.17391992 142.37109375 96.09765625 C142.69706543 97.34740234 143.02303711 98.59714844 143.35888672 99.88476562 C143.98705133 102.28512648 144.61748739 104.68489437 145.25048828 107.08398438 C145.66983643 108.6840332 145.66983643 108.6840332 146.09765625 110.31640625 C146.34636475 111.25887207 146.59507324 112.20133789 146.85131836 113.17236328 C147.3828125 115.43359375 147.3828125 115.43359375 147.3828125 117.43359375 C134.1828125 117.43359375 120.9828125 117.43359375 107.3828125 117.43359375 C104.01359421 108.44901166 104.01359421 108.44901166 103.171875 104.65625 C102.98149658 103.8211792 102.79111816 102.9861084 102.5949707 102.12573242 C102.4012085 101.25795166 102.20744629 100.3901709 102.0078125 99.49609375 C100.27255246 91.95354117 98.3440709 84.51732892 96.08251953 77.11547852 C92.04206275 63.88558983 92.04206275 63.88558983 92.3828125 58.43359375 C91.7228125 58.43359375 91.0628125 58.43359375 90.3828125 58.43359375 C90.04765625 59.56539062 89.7125 60.6971875 89.3671875 61.86328125 C86.75748285 69.68322761 83.09103865 77.0878174 79.6328125 84.55859375 C78.93447679 86.07663021 78.23655743 87.59485829 77.5390625 89.11328125 C73.18930907 98.57017088 68.78482537 108.00070903 64.3828125 117.43359375 C50.1928125 117.43359375 36.0028125 117.43359375 21.3828125 117.43359375 C18.9078125 108.02859375 18.9078125 108.02859375 16.3828125 98.43359375 C15.7228125 95.97921875 15.0628125 93.52484375 14.3828125 90.99609375 C12.83634895 85.22014554 11.38014714 79.42567718 9.9453125 73.62109375 C8.23588437 66.7172098 6.41409677 59.858689 4.47338867 53.01660156 C3.04651536 47.93814226 1.70321804 42.84054468 0.39453125 37.73046875 C0.21913315 37.04608231 0.04373505 36.36169586 -0.13697815 35.65657043 C-1.01738717 32.21657216 -1.89291226 28.77540162 -2.76293945 25.33276367 C-4.96533339 12.98302676 -4.96533339 12.98302676 -11.6171875 3.43359375 C-8.07482648 0.00984111 -4.6857227 -0.0195325 0 0 Z " fill="#01FD81" transform="translate(120.6171875,63.56640625)"/>
<path d="M0 0 C0.33 0 0.66 0 1 0 C1 1.98 1 3.96 1 6 C1.99 6.33 2.98 6.66 4 7 C6.41646309 11.74126723 8.05214151 16.94852101 8.5625 22.25 C8.79974721 25.99665167 8.79974721 25.99665167 10.44921875 29.1015625 C12.4712645 33.6440753 12.82917558 38.21296325 13.25 43.125 C13.34023437 44.00542969 13.43046875 44.88585937 13.5234375 45.79296875 C13.92612403 50.09911666 14.1567142 53.79009833 13 58 C12.82607475 58.92320038 12.82607475 58.92320038 12.64863586 59.86505127 C11.47392208 65.94693482 9.34761799 71.17116352 6.68359375 76.7421875 C6.05880882 78.07746994 6.05880882 78.07746994 5.42140198 79.43972778 C4.10189404 82.25555417 2.77018373 85.06538912 1.4375 87.875 C0.10386513 90.70720096 -1.2272396 93.54057361 -2.55711365 96.37454224 C-3.38237621 98.13094384 -4.21029469 99.88610054 -5.04115295 101.63986206 C-5.41501633 102.43143707 -5.7888797 103.22301208 -6.17407227 104.03857422 C-6.5033522 104.73312714 -6.83263214 105.42768005 -7.17189026 106.14328003 C-8.10753195 108.1598926 -8.10753195 108.1598926 -9 111 C-23.19 111 -37.38 111 -52 111 C-48.62700965 100.88102894 -48.62700965 100.88102894 -46.828125 97.03125 C-46.41908936 96.14816162 -46.01005371 95.26507324 -45.58862305 94.35522461 C-45.14687744 93.41300049 -44.70513184 92.47077637 -44.25 91.5 C-43.2610694 89.36618624 -42.27282644 87.2320537 -41.28515625 85.09765625 C-40.7555127 83.95570801 -40.22586914 82.81375977 -39.68017578 81.63720703 C-36.96899182 75.77881077 -34.3034441 69.89958674 -31.63479614 64.02172852 C-30.68685652 61.93608422 -29.73617819 59.85170705 -28.78491211 57.76757812 C-25.8296904 51.28531738 -22.89770393 44.79516464 -20.04563904 38.26673889 C-18.7787379 35.36802295 -17.5017826 32.47378177 -16.22451782 29.57962036 C-15.61993755 28.20103169 -15.02072464 26.82007581 -14.42709351 25.43673706 C-13.60636034 23.52472208 -12.76813139 21.62131827 -11.92578125 19.71875 C-11.45567627 18.63529297 -10.98557129 17.55183594 -10.5012207 16.43554688 C-9 14 -9 14 -6.81713867 13.14257812 C-6.21748291 13.09552734 -5.61782715 13.04847656 -5 13 C-4.67 11.68 -4.34 10.36 -4 9 C-3.34 9 -2.68 9 -2 9 C-2 7.35 -2 5.7 -2 4 C-1.34 4 -0.68 4 0 4 C0 2.68 0 1.36 0 0 Z " fill="#67F0AD" transform="translate(109,70)"/>
<path d="M0 0 C2.26218545 2.7539649 3.49649137 4.9859655 4.359375 8.4375 C4.58423584 9.31760742 4.80909668 10.19771484 5.04077148 11.10449219 C5.3918396 12.53776855 5.3918396 12.53776855 5.75 14 C6.00531494 15.0096582 6.26062988 16.01931641 6.52368164 17.05957031 C7.35854016 20.37076394 8.17985168 23.6851347 9 27 C9.56579097 29.26577873 10.13220227 31.53140264 10.69921875 33.796875 C11.57107067 37.28182466 12.44173349 40.76704085 13.30786133 44.25341797 C15.75056827 54.07170326 18.28565198 63.86472598 20.86694336 73.64746094 C21.14675049 74.71512695 21.42655762 75.78279297 21.71484375 76.8828125 C21.96355225 77.82527832 22.21226074 78.76774414 22.46850586 79.73876953 C23 82 23 82 23 84 C9.8 84 -3.4 84 -17 84 C-20.37208451 75.00777463 -20.37208451 75.00777463 -21.24609375 71.15234375 C-21.44178955 70.30671875 -21.63748535 69.46109375 -21.83911133 68.58984375 C-22.03657959 67.71457031 -22.23404785 66.83929688 -22.4375 65.9375 C-24.2114281 58.2430276 -26.13722264 50.62508418 -28.30078125 43.03125 C-28.94839051 40.22373722 -29.14434139 37.86544392 -29 35 C-28.1028125 34.6596875 -28.1028125 34.6596875 -27.1875 34.3125 C-24.35708548 32.61425129 -23.627517 30.87945316 -22 28 C-20.06610311 25.28305284 -18.03041928 22.64526455 -16 20 C-15.45085937 19.27425781 -14.90171875 18.54851562 -14.3359375 17.80078125 C-10.62779582 12.94971919 -6.72007205 8.35575454 -2.6015625 3.84765625 C-0.93815104 2.08289476 -0.93815104 2.08289476 0 0 Z " fill="#6CFCB7" transform="translate(245,97)"/>
<path d="M0 0 C1.32 0.33 2.64 0.66 4 1 C9.37129841 20.96810934 9.37129841 20.96810934 11 30 C10.01 30.33 9.02 30.66 8 31 C6.24986662 32.68902799 6.24986662 32.68902799 4.5625 34.75 C3.94632813 35.47574219 3.33015625 36.20148438 2.6953125 36.94921875 C0.76977864 39.27849358 -1.119517 41.63423107 -3 44 C-4.01910524 45.16817649 -5.04007091 46.33473155 -6.0625 47.5 C-8.38943397 50.20411777 -10.22597358 52.89545377 -12 56 C-12.98513044 57.59262754 -13.98657893 59.17522314 -15 60.75 C-15.495 61.52859375 -15.99 62.3071875 -16.5 63.109375 C-18 65 -18 65 -21 66 C-24.12331848 57.81304847 -24.84752362 51.68953099 -21.4987793 43.52389526 C-19.44723252 39.01721615 -17.24887455 34.5983265 -15 30.1875 C-14.10949794 28.36708021 -13.22274931 26.54481933 -12.33984375 24.72070312 C-10.32970682 20.58980719 -8.28120243 16.48048888 -6.20507812 12.38241577 C-4.12123896 8.2627067 -2.0621021 4.1306211 0 0 Z " fill="#4BAF7E" transform="translate(236,69)"/>
<path d="M0 0 C0.7347757 -0.00524185 1.46955139 -0.0104837 2.22659302 -0.0158844 C3.77816508 -0.02229517 5.32978579 -0.02097977 6.88134766 -0.01245117 C9.2434043 -0.00395806 11.60302693 -0.03268312 13.96484375 -0.06445312 C15.47656178 -0.06606588 16.98828406 -0.06548619 18.5 -0.0625 C19.20019257 -0.07373398 19.90038513 -0.08496796 20.62179565 -0.09654236 C25.65826158 -0.02574378 28.51280297 1.26314354 32.3828125 4.43359375 C34.3828125 7.43359375 34.3828125 7.43359375 35.3828125 16.43359375 C22.1828125 16.43359375 8.9828125 16.43359375 -4.6171875 16.43359375 C-5.9371875 12.80359375 -7.2571875 9.17359375 -8.6171875 5.43359375 C-9.6071875 4.77359375 -10.5971875 4.11359375 -11.6171875 3.43359375 C-8.07482648 0.00984111 -4.6857227 -0.0195325 0 0 Z " fill="#5AFCAE" transform="translate(120.6171875,63.56640625)"/>
<path d="M0 0 C0.76075836 -0.00902847 1.52151672 -0.01805695 2.30532837 -0.02735901 C3.91412422 -0.04185814 5.522979 -0.05074742 7.13183594 -0.05444336 C9.58630403 -0.06633234 12.03825064 -0.11550789 14.4921875 -0.16601562 C16.05727943 -0.1754813 17.62238676 -0.18271565 19.1875 -0.1875 C19.91786469 -0.20703232 20.64822937 -0.22656464 21.40072632 -0.24668884 C25.4842971 -0.21075418 27.0596261 0.23015208 30.22900391 2.90600586 C31.21779541 4.12622437 31.21779541 4.12622437 32.2265625 5.37109375 C31.5665625 5.37109375 30.9065625 5.37109375 30.2265625 5.37109375 C29.9171875 6.31984375 29.6078125 7.26859375 29.2890625 8.24609375 C28.2265625 11.37109375 28.2265625 11.37109375 27.2265625 13.37109375 C13.6965625 13.37109375 0.1665625 13.37109375 -13.7734375 13.37109375 C-14.7734375 8.37109375 -14.7734375 8.37109375 -13.0234375 5.18359375 C-9.08869266 0.26516271 -5.92483277 0.04326326 0 0 Z " fill="#5BFDAE" transform="translate(205.7734375,63.62890625)"/>
<path d="M0 0 C0.66 0 1.32 0 2 0 C2.66 3.3 3.32 6.6 4 10 C3.01 10.33 2.02 10.66 1 11 C-0.75013338 12.68902799 -0.75013338 12.68902799 -2.4375 14.75 C-3.05367187 15.47574219 -3.66984375 16.20148438 -4.3046875 16.94921875 C-6.23022136 19.27849358 -8.119517 21.63423107 -10 24 C-11.01910524 25.16817649 -12.04007091 26.33473155 -13.0625 27.5 C-15.38943397 30.20411777 -17.22597358 32.89545377 -19 36 C-19.98513044 37.59262754 -20.98657893 39.17522314 -22 40.75 C-22.7425 41.91789062 -22.7425 41.91789062 -23.5 43.109375 C-25 45 -25 45 -28 46 C-29.86035163 37.59459309 -29.86035163 37.59459309 -27.80078125 33.77734375 C-26.28647454 31.99170848 -24.86035488 30.42234728 -23 29 C-22.34 29 -21.68 29 -21 29 C-20.7215625 27.7625 -20.7215625 27.7625 -20.4375 26.5 C-18.53818279 21.87557549 -15.65687488 18.39813374 -12 15 C-11.34 15 -10.68 15 -10 15 C-9.731875 14.42378906 -9.46375 13.84757812 -9.1875 13.25390625 C-7.97137559 10.94567012 -6.59121696 9.002104 -5 6.9375 C-3.24878722 4.65654536 -1.59742149 2.39613223 0 0 Z " fill="#55C68F" transform="translate(243,89)"/>
<path d="M0 0 C1.77206192 0.00015919 3.54412846 0.00585754 5.31616211 0.01586914 C6.24698105 0.01728409 7.17779999 0.01869904 8.13682556 0.02015686 C11.12241777 0.02577367 14.10793615 0.03832899 17.09350586 0.05102539 C19.11238499 0.05603823 21.13126529 0.06060151 23.15014648 0.06469727 C28.11046158 0.07574856 33.07072118 0.09302444 38.03100586 0.11352539 C37.70100586 2.09352539 37.37100586 4.07352539 37.03100586 6.11352539 C23.50100586 6.11352539 9.97100586 6.11352539 -3.96899414 6.11352539 C-4.29899414 4.46352539 -4.62899414 2.81352539 -4.96899414 1.11352539 C-3.96899414 0.11352539 -3.96899414 0.11352539 0 0 Z " fill="#69FEB5" transform="translate(195.968994140625,70.886474609375)"/>
<path d="M0 0 C1.32 0.33 2.64 0.66 4 1 C5.49250061 4.8385812 6.744304 8.28316409 5.04296875 12.20751953 C3.47198772 14.44533849 1.79676939 16.50172327 0 18.5625 C-1.16694131 19.98024273 -2.33360912 21.39821063 -3.5 22.81640625 C-4.08056152 23.50492676 -4.66112305 24.19344727 -5.25927734 24.90283203 C-11.15023785 31.84967558 -11.15023785 31.84967558 -15 40 C-15.66 40 -16.32 40 -17 40 C-17.66 41.32 -18.32 42.64 -19 44 C-18.4214773 39.22208311 -17.03500745 35.47417576 -14.98046875 31.1328125 C-14.68062576 30.49439423 -14.38078278 29.85597595 -14.07185364 29.19821167 C-13.11732003 27.17045656 -12.15251383 25.14778494 -11.1875 23.125 C-10.5507714 21.77505111 -9.91469779 20.42479307 -9.27929688 19.07421875 C-6.26288032 12.67747242 -3.20165293 6.30653045 0 0 Z " fill="#3B8962" transform="translate(236,69)"/>
<path d="M0 0 C0.33 0 0.66 0 1 0 C1.4940239 6.29880478 1.4940239 6.29880478 -0.9375 9.75 C-1.618125 10.4925 -2.29875 11.235 -3 12 C-3.33 12.99 -3.66 13.98 -4 15 C-4.66 15 -5.32 15 -6 15 C-6.26554687 15.73992187 -6.53109375 16.47984375 -6.8046875 17.2421875 C-7.98496406 19.96530924 -9.25521759 21.8377778 -11.125 24.125 C-14.68850355 28.55328684 -17.96150652 33.14456939 -21.203125 37.8125 C-23 40 -23 40 -26 41 C-26.66 42.32 -27.32 43.64 -28 45 C-28.33 41.7 -28.66 38.4 -29 35 C-27.68 34.34 -26.36 33.68 -25 33 C-23.94410931 31.36816893 -22.9563874 29.69207001 -22 28 C-20.06610311 25.28305284 -18.03041928 22.64526455 -16 20 C-15.45085937 19.27425781 -14.90171875 18.54851562 -14.3359375 17.80078125 C-10.62779582 12.94971919 -6.72007205 8.35575454 -2.6015625 3.84765625 C-0.93815104 2.08289476 -0.93815104 2.08289476 0 0 Z " fill="#63E7A6" transform="translate(245,97)"/>
<path d="M0 0 C1.67542976 0.28604898 3.34385343 0.61781233 5 1 C8.76960766 13.69926624 12.45992483 26.42224046 16 39.1875 C16.31461182 40.29077637 16.62922363 41.39405273 16.95336914 42.53076172 C17.23688232 43.56604004 17.52039551 44.60131836 17.8125 45.66796875 C18.19341797 47.03344849 18.19341797 47.03344849 18.58203125 48.42651367 C19.3139134 52.9328044 18.01577269 56.35707779 15.9375 60.3125 C15.57527344 61.00988281 15.21304688 61.70726562 14.83984375 62.42578125 C14.56269531 62.94527344 14.28554687 63.46476562 14 64 C13.22975847 61.68927542 12.93912097 60.2680641 13.484375 57.8671875 C14.25975314 53.55561513 13.694379 49.46086938 13.25 45.125 C13.17523438 44.25230469 13.10046875 43.37960938 13.0234375 42.48046875 C12.48360606 37.04125801 11.31070714 32.93761631 9 28 C8.375 25.4453125 8.375 25.4453125 8 23.125 C6.44625093 13.57552801 6.44625093 13.57552801 1 6 C0.34 6 -0.32 6 -1 6 C-1 7.65 -1 9.3 -1 11 C-1.66 11 -2.32 11 -3 11 C-3.33 12.32 -3.66 13.64 -4 15 C-4.99 15 -5.98 15 -7 15 C-3.57142857 3.57142857 -3.57142857 3.57142857 0 0 Z " fill="#389668" transform="translate(108,68)"/>
<path d="M0 0 C0.33 0 0.66 0 1 0 C1.495 4.455 1.495 4.455 2 9 C-11.2 9 -24.4 9 -38 9 C-38.66 7.02 -39.32 5.04 -40 3 C-20.2 3.495 -20.2 3.495 0 4 C0 2.68 0 1.36 0 0 Z " fill="#3FFC9F" transform="translate(154,71)"/>
<path d="M0 0 C0.66 0.66 1.32 1.32 2 2 C1.875 3.9375 1.875 3.9375 1 6 C0.401875 6.433125 -0.19625 6.86625 -0.8125 7.3125 C-3.33175049 9.25592181 -4.44560636 11.39262017 -5.9296875 14.16796875 C-7.00112192 16.00192037 -8.17664379 17.51923248 -9.5625 19.125 C-11.73762249 21.6905291 -13.27887756 24.1300599 -15 27 C-16.98626668 29.78718067 -19.02388588 32.53220974 -21.0625 35.28125 C-24.05018158 39.47364189 -26.26452117 42.85164817 -27 48 C-27.33 48 -27.66 48 -28 48 C-29.64451156 41.5589964 -28.05498079 37.78217394 -25 32 C-24.34 32 -23.68 32 -23 32 C-20.11477778 28.98082572 -20.11477778 28.98082572 -18.6640625 25.17578125 C-17.67676597 21.94093319 -15.64970316 19.97393447 -13.4375 17.4375 C-8.62536202 11.83874577 -4.25495127 6.03775208 0 0 Z " fill="#429C70" transform="translate(241,79)"/>
<path d="M0 0 C19.8 0.495 19.8 0.495 40 1 C40 2.32 40 3.64 40 5 C27.13 5 14.26 5 1 5 C0.67 3.35 0.34 1.7 0 0 Z " fill="#74FEBB" transform="translate(114,70)"/>
<path d="M0 0 C0.66 0.66 1.32 1.32 2 2 C5.00886724 2.24606015 7.93217752 2.37380782 10.9453125 2.4140625 C11.8303244 2.43342865 12.7153363 2.4527948 13.62716675 2.4727478 C16.45967916 2.53262723 19.29223203 2.57896213 22.125 2.625 C24.04298668 2.66317211 25.96095607 2.70222338 27.87890625 2.7421875 C32.58579748 2.83833555 37.29276896 2.92233542 42 3 C41.67 3.99 41.34 4.98 41 6 C26.81 6 12.62 6 -2 6 C-1.34 4.02 -0.68 2.04 0 0 Z " fill="#2BFE97" transform="translate(190,74)"/>
<path d="M0 0 C1.14400772 -0.00218285 1.14400772 -0.00218285 2.31112671 -0.00440979 C3.91644122 -0.00275567 5.52177239 0.00875102 7.12695312 0.02954102 C9.58531784 0.05858643 12.04153617 0.05012362 14.5 0.03710938 C16.06251048 0.04334468 17.62501417 0.05173401 19.1875 0.0625 C20.28911972 0.05809654 20.28911972 0.05809654 21.41299438 0.05360413 C26.57039618 0.14919308 26.57039618 0.14919308 28.67807007 2.02134705 C29.10141632 2.50801346 29.52476257 2.99467987 29.9609375 3.49609375 C24.31926655 3.63898821 18.67758352 3.78139219 13.03588867 3.92333984 C11.11628891 3.9717072 9.19669252 4.02020905 7.27709961 4.06884766 C4.51937726 4.1386995 1.76164315 4.20806912 -0.99609375 4.27734375 C-1.85556107 4.29921753 -2.71502838 4.32109131 -3.60054016 4.34362793 C-4.80144539 4.37365906 -4.80144539 4.37365906 -6.02661133 4.40429688 C-6.7305452 4.42206177 -7.43447906 4.43982666 -8.15974426 4.45812988 C-9.78590114 4.49097967 -11.41257386 4.49609375 -13.0390625 4.49609375 C-8.91796094 0.43392263 -5.5686219 -0.0856528 0 0 Z " fill="#38F89D" transform="translate(206.0390625,63.50390625)"/>
<path d="M0 0 C0.71678925 0.01750809 1.43357849 0.03501617 2.17208862 0.05305481 C3.28848221 0.05798698 3.28848221 0.05798698 4.4274292 0.0630188 C5.99588811 0.07341814 7.56430916 0.09333189 9.13253784 0.12214661 C11.53786265 0.16631011 13.94218937 0.18359716 16.34786987 0.19563293 C17.87262392 0.20905397 19.39736564 0.22397611 20.92208862 0.24055481 C22.00334518 0.25163521 22.00334518 0.25163521 23.10644531 0.26293945 C28.17746016 0.36042808 28.17746016 0.36042808 30.41427612 1.47883606 C30.41427612 2.13883606 30.41427612 2.79883606 30.41427612 3.47883606 C17.21427612 3.80883606 4.01427612 4.13883606 -9.58572388 4.47883606 C-5.12915316 0.02226534 -5.12915316 0.02226534 0 0 Z " fill="#32FB9D" transform="translate(118.58572387695313,63.52116394042969)"/>
<path d="M0 0 C1.32 0.33 2.64 0.66 4 1 C4.69741762 5.01015129 4.66820462 6.98224796 2.39453125 10.4453125 C0.30820319 13.00527225 -1.84073667 15.50148088 -4 18 C-5.72253294 20.29943827 -7.35904267 22.64112383 -9 25 C-9.95849676 22.43361844 -10.08514104 21.25208983 -9.19555664 18.61816406 C-8.77137451 17.75932617 -8.34719238 16.90048828 -7.91015625 16.015625 C-7.22856445 14.61376953 -7.22856445 14.61376953 -6.53320312 13.18359375 C-6.04787109 12.21550781 -5.56253906 11.24742188 -5.0625 10.25 C-4.58103516 9.26644531 -4.09957031 8.28289062 -3.60351562 7.26953125 C-2.41280543 4.84095402 -1.21137576 2.41831774 0 0 Z " fill="#337F59" transform="translate(236,69)"/>
<path d="M0 0 C1.67542976 0.28604898 3.34385343 0.61781233 5 1 C5.67736481 3.03814233 6.34143534 5.08070555 7 7.125 C7.37125 8.26195313 7.7425 9.39890625 8.125 10.5703125 C8.96911949 13.87895941 9.16509276 16.60528016 9 20 C6.35637129 17.35637129 5.89836719 14.72747933 4.87890625 11.19140625 C3.92491201 8.8127806 2.99651267 7.58801903 1 6 C0.34 6 -0.32 6 -1 6 C-1 7.65 -1 9.3 -1 11 C-1.66 11 -2.32 11 -3 11 C-3.33 12.32 -3.66 13.64 -4 15 C-4.99 15 -5.98 15 -7 15 C-3.57142857 3.57142857 -3.57142857 3.57142857 0 0 Z " fill="#337B58" transform="translate(108,68)"/>
<path d="M0 0 C0.66 0 1.32 0 2 0 C1.582687 4.92784505 -0.54985927 6.9777145 -4.0625 10.3125 C-4.98160156 11.19550781 -5.90070313 12.07851562 -6.84765625 12.98828125 C-7.55792969 13.65214844 -8.26820313 14.31601563 -9 15 C-9 11.24101705 -7.96571869 10.36618615 -5.625 7.5 C-3.62903453 5.0358451 -1.76144052 2.64216078 0 0 Z M-12 15 C-11.34 15.33 -10.68 15.66 -10 16 C-12.97 19.3 -15.94 22.6 -19 26 C-19 22.22089522 -18.00296038 21.53893899 -15.5 18.8125 C-14.8503125 18.09707031 -14.200625 17.38164063 -13.53125 16.64453125 C-13.0259375 16.10183594 -12.520625 15.55914062 -12 15 Z " fill="#51BF89" transform="translate(243,89)"/>
<path d="M0 0 C2.17812774 3.6302129 2.93169294 6.76496213 3 11 C1.61860636 14.50464683 -0.10806497 17.74639547 -2 21 C-2.98618802 17.51546901 -2.71070084 15.5535042 -2 12 C-1.90903233 8.99806695 -1.94112906 6.00241789 -2 3 C-1.34 3 -0.68 3 0 3 C0 2.01 0 1.02 0 0 Z " fill="#43A977" transform="translate(124,111)"/>
<path d="M0 0 C0.66 0.66 1.32 1.32 2 2 C5.00886724 2.24606015 7.93217752 2.37380782 10.9453125 2.4140625 C11.8303244 2.43342865 12.7153363 2.4527948 13.62716675 2.4727478 C16.45967916 2.53262723 19.29223203 2.57896213 22.125 2.625 C24.04298668 2.66317211 25.96095607 2.70222338 27.87890625 2.7421875 C32.58579748 2.83833555 37.29276896 2.92233542 42 3 C42 3.33 42 3.66 42 4 C40.80922852 4.02505615 39.61845703 4.0501123 38.39160156 4.07592773 C33.97092042 4.17014647 29.5503911 4.27033189 25.12988281 4.37231445 C23.21715854 4.41560857 21.304397 4.45728756 19.39160156 4.49731445 C16.64116182 4.5551508 13.89090872 4.61880676 11.140625 4.68359375 C10.28631897 4.70030624 9.43201294 4.71701874 8.55181885 4.73423767 C7.75129089 4.75418289 6.95076294 4.77412811 6.12597656 4.79467773 C5.42426331 4.81022202 4.72255005 4.8257663 3.99957275 4.84178162 C1.90814203 5.00726836 0.01743692 5.43584497 -2 6 C-1.34 4.02 -0.68 2.04 0 0 Z " fill="#3EF79D" transform="translate(190,74)"/>
<path d="M0 0 C1.32 0.33 2.64 0.66 4 1 C3.34938905 2.67299959 2.67966676 4.33859237 2 6 C1.731875 6.66 1.46375 7.32 1.1875 8 C-0.46093504 10.77631164 -2.66712144 12.78990452 -5 15 C-4.5188509 9.22621075 -2.81532819 5.04140164 0 0 Z " fill="#317453" transform="translate(236,69)"/>
<path d="M0 0 C2.91515791 -0.19519949 5.60308105 -0.20641074 8.5078125 -0.07421875 C9.34843231 -0.04777786 10.18905212 -0.02133698 11.05514526 0.00590515 C13.74580647 0.09382985 16.43514201 0.2029203 19.125 0.3125 C20.94656675 0.37574211 22.76818181 0.43760871 24.58984375 0.49804688 C29.06061322 0.64939631 33.53030681 0.81973479 38 1 C38 1.33 38 1.66 38 2 C24.8 2.33 11.6 2.66 -2 3 C-1.34 2.01 -0.68 1.02 0 0 Z " fill="#40F99F" transform="translate(111,65)"/>
<path d="M0 0 C1.5625 1.8125 1.5625 1.8125 3 4 C1.87994369 7.36016893 0.62788203 8.69064913 -2 11 C-2.66 11 -3.32 11 -4 11 C-4.8125 8.875 -4.8125 8.875 -5 6 C-3.55576519 3.69892439 -1.89127865 1.98353614 0 0 Z " fill="#59CB93" transform="translate(244,92)"/>
<path d="M0 0 C0.33 0.99 0.66 1.98 1 3 C0.4225 3.515625 -0.155 4.03125 -0.75 4.5625 C-3.46936119 7.50847463 -5.10156592 10.47433671 -7 14 C-7.66 13.34 -8.32 12.68 -9 12 C-9 11.01 -9 10.02 -9 9 C-8.34 9 -7.68 9 -7 9 C-6.6596875 8.1646875 -6.6596875 8.1646875 -6.3125 7.3125 C-4.64103234 4.36753316 -2.44723648 2.31843456 0 0 Z " fill="#59D397" transform="translate(225,120)"/>
<path d="M0 0 C0.33 0 0.66 0 1 0 C1 2.31 1 4.62 1 7 C0.34 7 -0.32 7 -1 7 C-1.33 8.32 -1.66 9.64 -2 11 C-2.99 11 -3.98 11 -5 11 C-3.77782954 6.95743617 -2.37245704 3.50711041 0 0 Z " fill="#49A377" transform="translate(106,72)"/>
<path d="M0 0 C0.99 0.33 1.98 0.66 3 1 C2.34 2.65 1.68 4.3 1 6 C0.34 6 -0.32 6 -1 6 C-1.66 7.32 -2.32 8.64 -3 10 C-2.49287967 6.28111761 -1.88391785 3.26545761 0 0 Z " fill="#3C9268" transform="translate(220,103)"/>
<path d="M0 0 C0.66 0 1.32 0 2 0 C1.67 2.31 1.34 4.62 1 7 C-0.32 7 -1.64 7 -3 7 C-1.125 1.125 -1.125 1.125 0 0 Z " fill="#5ACD94" transform="translate(101,83)"/>
<path d="M0 0 C0.66 0.66 1.32 1.32 2 2 C1.71709728 6.33784166 0.68006678 8.66255835 -2 12 C-1.85904936 10.3745692 -1.71207913 8.74965949 -1.5625 7.125 C-1.48128906 6.22007813 -1.40007812 5.31515625 -1.31640625 4.3828125 C-1 2 -1 2 0 0 Z " fill="#54C08B" transform="translate(123,120)"/>
<path d="M0 0 C0.66 0 1.32 0 2 0 C1.1875 2.4375 1.1875 2.4375 0 5 C-0.99 5.33 -1.98 5.66 -3 6 C-2.42655063 3.13275314 -2.1385485 2.1385485 0 0 Z " fill="#5DDA9C" transform="translate(243,97)"/>
</svg>
